HIERARCHY
ROOT Hips
{
  OFFSET 0 0 0
  CHANNELS 6 Xposition Yposition Zposition Zrotation Xrotation Yrotation
  JOINT Spine
  {
    OFFSET 0 10 0
    CHANNELS 3 Zrotation Xrotation Yrotation
    JOINT Neck
    {
      OFFSET 0 30 0
      CHANNELS 3 Zrotation Xrotation Yrotation
      JOINT Head
      {
        OFFSET 0 8 0
        CHANNELS 3 Zrotation Xrotation Yrotation
        End Site
        {
          OFFSET 0 10 0
        }
      }
    }
    JOINT LeftArm
    {
      OFFSET 15 30 0
      CHANNELS 3 Zrotation Xrotation Yrotation
      JOINT LeftForeArm
      {
        OFFSET 25 0 0
        CHANNELS 3 Zrotation Xrotation Yrotation
        JOINT LeftHand
        {
          OFFSET 25 0 0
          CHANNELS 3 Zrotation Xrotation Yrotation
          End Site
          {
            OFFSET 10 0 0
          }
        }
      }
    }
    JOINT RightArm
    {
      OFFSET -15 30 0
      CHANNELS 3 Zrotation Xrotation Yrotation
      JOINT RightForeArm
      {
        OFFSET -25 0 0
        CHANNELS 3 Zrotation Xrotation Yrotation
        JOINT RightHand
        {
          OFFSET -25 0 0
          CHANNELS 3 Zrotation Xrotation Yrotation
          End Site
          {
            OFFSET -10 0 0
          }
        }
      }
    }
  }
  JOINT LeftUpLeg
  {
    OFFSET 10 -10 0
    CHANNELS 3 Zrotation Xrotation Yrotation
    JOINT LeftLeg
    {
      OFFSET 0 -35 0
      CHANNELS 3 Zrotation Xrotation Yrotation
      JOINT LeftToe
      {
        OFFSET 0 -40 0
        CHANNELS 3 Zrotation Xrotation Yrotation
        JOINT LeftToeEnd
        {
          OFFSET 0 0 0
          CHANNELS 3 Zrotation Xrotation Yrotation
          End Site
          {
            OFFSET 0 0 15
          }
        }
      }
    }
  }
  JOINT RightUpLeg
  {
    OFFSET -10 -10 0
    CHANNELS 3 Zrotation Xrotation Yrotation
    JOINT RightLeg
    {
      OFFSET 0 -35 0
      CHANNELS 3 Zrotation Xrotation Yrotation
      JOINT RightToe
      {
        OFFSET 0 -40 0
        CHANNELS 3 Zrotation Xrotation Yrotation
        JOINT RightToeEnd
        {
          OFFSET 0 0 0
          CHANNELS 3 Zrotation Xrotation Yrotation
          End Site
          {
            OFFSET 0 0 15
          }
        }
      }
    }
  }
}
MOTION
Frames:	17
Frame Time:	0.0333333 
2.37587 87.5536 -10.9073 -0.415157 4.59047 -3.11767 -7.06365 9.92522 2.58577 -5.13983 -24.2559 -2.72485 17.4108 17.7056 -6.24949 -82.6278 3.10046 -6.94783 12.8189 -2.29056 -20.864 -0.285078 3.42001 -1.02038 88.9207 20.1728 8.77911 -14.0681 -2.81991 18.7358 0.786604 18.6593 0.419127 2.31695 -11.836 -3.47382 -0.916743 27.0122 -0.831771 0.431551 -19.489 15.7886 1.2424e-016 0 -0 0.244436 -9.82781 16.8222 0.000129022 23.8814 1.39149 1.17113 -18.8783 -17.4474 1.18028e-016 -6.21202e-018 -0 
2.39891 87.5509 -10.9984 -0.493628 4.65954 -3.16074 -6.93251 10.4629 2.75134 -5.14006 -24.3293 -2.69081 17.2804 17.2257 -6.1598 -82.394 3.71633 -7.33229 12.7311 -2.26034 -20.7099 -0.308799 2.55851 -0.99748 88.702 20.3702 9.10022 -14.1668 -2.87394 18.9322 0.795077 18.4394 0.430805 2.39147 -12.1334 -3.37808 -0.886285 27.2863 -0.850268 0.459576 -19.5155 15.6908 -2.60905e-016 -2.48481e-017 -1.59028e-015 0.328659 -10.0076 16.8644 -0.0122923 23.9124 1.40406 1.22352 -18.8543 -17.368 -1.00557e-016 -6.21202e-018 3.97569e-016 
2.43779 87.5153 -11.0683 -0.226451 4.60834 -3.11679 -7.24354 11.0998 2.72163 -5.08492 -24.6218 -2.62973 17.3574 17.1374 -5.94132 -82.2717 3.65434 -7.59208 12.8761 -2.32452 -21.0019 -0.283106 2.7037 -1.02529 88.5937 20.6243 9.32909 -14.2332 -2.92833 19.1104 0.804546 18.1135 0.413924 2.09446 -12.1463 -3.19288 -0.859684 27.2741 -0.876634 0.425715 -19.4253 15.4143 -1.61513e-016 4.96962e-017 1.59028e-015 0.0915696 -10.3263 16.7681 -0.0627286 24.5583 1.40954 1.24703 -19.072 -17.2697 4.83373e-017 3.10601e-018 -0 
2.44223 87.4763 -11.1701 -0.262568 4.60834 -3.22011 -7.16299 11.9135 2.91466 -5.14367 -25.1571 -2.60332 17.2507 17.2342 -5.86362 -82.104 3.92721 -8.01079 12.9087 -2.34412 -21.0883 -0.28663 2.42818 -1.02386 88.1716 20.8043 9.93754 -14.2019 -2.91327 19.061 0.805445 17.9097 0.409775 2.17007 -12.4395 -2.90665 -0.806173 27.6736 -0.904587 0.492171 -19.5448 15.1712 -1.2424e-017 4.96962e-017 3.18055e-015 0.250294 -10.7236 16.6983 -0.135406 25.1004 1.40027 1.10002 -19.1326 -17.1247 -2.76047e-016 0 -3.97569e-016 
2.42837 87.4078 -11.3427 -0.175125 4.83624 -3.42532 -7.55856 12.409 3.31933 -4.52116 -25.2187 -2.50917 16.6125 16.8057 -5.92758 -81.7109 4.08586 -8.29852 12.9643 -2.37422 -21.208 -0.275625 2.10725 -1.01353 88.2318 20.5193 10.3648 -14.173 -2.89905 19.027 0.789991 18.422 0.413764 2.11767 -13.1402 -2.55991 -0.711705 28.2765 -0.94562 0.591789 -19.6036 15.0068 8.07563e-017 0 1.59028e-015 0.353812 -11.706 16.6174 -0.241758 26.0553 1.39786 1.04 -19.2639 -16.5785 -5.35787e-017 -6.21202e-018 7.95139e-016 
2.42105 87.261 -11.4997 0.0106712 5.18862 -3.73392 -7.86834 12.9109 3.53999 -4.66871 -25.7584 -2.4254 17.0071 16.8197 -5.77457 -81.5631 4.29437 -8.47031 13.1712 -2.47155 -21.6292 -0.287322 1.69875 -1.00805 87.9381 20.6842 10.9692 -14.197 -2.91719 19.0855 0.750818 18.1106 0.454826 2.00061 -14.3244 -1.97958 -0.602759 29.3644 -1.02395 0.7188 -19.8631 14.7437 4.34841e-017 0 -3.18055e-015 0.501773 -13.1477 16.5846 -0.398995 27.6436 1.38517 0.889594 -19.6489 -16.1688 2.29845e-016 6.21202e-018 -3.97569e-016 
2.33774 87.0815 -11.7345 0.207324 5.25323 -4.16471 -8.52968 14.1328 4.0205 -4.24652 -26.2804 -2.28268 16.8197 15.7936 -5.59584 -80.9167 4.76049 -9.10496 13.2168 -2.50051 -21.7554 -0.328309 0.510843 -0.997037 87.6757 21.059 11.8599 -14.2946 -2.97851 19.302 0.760357 17.9383 0.465443 2.03814 -15.0561 -1.02297 -0.470299 30.3801 -1.11736 0.688477 -20.1934 14.0789 -3.35449e-016 -4.96962e-017 3.18055e-015 0.974272 -14.5546 17.2116 -0.613447 29.706 1.39132 0.472706 -20.0795 -16.2734 -2.71776e-017 2.48481e-017 -3.97569e-016 
2.25551 86.8159 -12.014 0.910208 5.24154 -4.10377 -10.0099 15.3641 4.14374 -3.73602 -26.4737 -2.29209 16.9587 14.6654 -5.47471 -79.9294 4.74959 -9.55099 13.4459 -2.62057 -22.2429 -0.246993 1.46694 -1.00841 87.6781 21.8624 12.5045 -14.4861 -3.12534 19.7755 0.728115 17.1708 0.50742 1.5899 -16.0962 0.0814453 -0.323551 31.6 -1.21592 0.644929 -20.3938 12.7673 -3.78933e-016 0 -0 0.82286 -16.1247 17.3795 -0.845675 32.3024 1.43296 0.10002 -20.987 -16.207 3.53697e-016 3.72721e-017 -0 
2.12374 86.4748 -12.4251 1.55009 5.12889 -3.23994 -11.2735 17.2162 3.62815 -3.11344 -27.1225 -2.53459 16.7349 13.4644 -5.30314 -78.7915 5.42207 -10.3096 13.7157 -2.75663 -22.8077 -0.236851 0.878973 -1.0204 87.5913 22.238 13.708 -14.5604 -3.18444 19.9867 0.802456 17.3741 0.46634 1.33414 -17.4021 1.39577 -0.12486 33.248 -1.28691 0.675912 -20.6138 10.5537 -3.97569e-016 0 -1.59028e-015 0.557273 -17.5286 17.1805 -1.05531 34.8519 1.62926 0.296739 -22.0136 -16.168 -9.9237e-016 1.2424e-017 -5.96354e-016 
2.09283 86.0632 -12.6821 1.6515 4.99961 -2.23349 -11.3916 18.7669 3.23121 -3.26862 -26.9919 -2.82538 16.7181 11.937 -5.18583 -78.0544 5.88503 -11.2327 13.5901 -2.70791 -22.6056 -0.243212 1.21414 -1.00195 87.2633 22.1785 14.3157 -14.6968 -3.27706 20.2964 0.831076 17.2679 0.428301 1.33895 -19.0309 1.87821 0.121817 35.6691 -1.41846 0.770857 -21.262 8.98985 7.3923e-016 0 1.59028e-015 0.601707 -18.4746 16.6897 -1.22096 37.0336 1.82695 0.390351 -23.0906 -16.0542 8.01351e-016 6.21202e-018 -1.98785e-016 
2.07223 85.5729 -12.9064 0.778579 4.87551 -1.39202 -9.91571 20.449 3.02678 -4.06888 -27.4675 -3.20607 16.6182 11.082 -5.30377 -77.9164 6.42428 -12.663 13.4381 -2.65198 -22.3626 -0.254853 1.3356 -0.980029 86.083 22.0593 15.024 -14.8736 -3.40836 20.7137 0.784164 17.2287 0.426792 2.56955 -20.8396 2.59254 0.382273 38.7943 -1.55996 0.726067 -22.4317 7.1735 -0 -4.96962e-017 -0 1.58408 -19.1473 16.0651 -1.38161 38.582 2.04495 0.642934 -23.8628 -15.6017 5.69759e-017 -1.55301e-018 4.96962e-017 
2.1453 84.9373 -13.1349 -0.566853 4.75796 -1.32535 -7.57735 21.9313 3.1349 -5.0476 -27.9845 -3.383 16.0379 10.5498 -5.24731 -78.7015 6.25768 -13.9276 13.4164 -2.64878 -22.3751 -0.251509 1.78247 -1.00313 84.2276 22.3015 15.6551 -15.0651 -3.54313 21.175 0.783648 16.8595 0.436843 4.43284 -23.3581 3.56603 0.647272 42.9513 -1.78028 0.45687 -23.9268 6.1049 3.29237e-016 9.93923e-017 1.59028e-015 2.98399 -20.2441 15.4735 -1.53666 40.4282 2.25459 1.11086 -24.5912 -14.1694 -1.00606e-016 1.55301e-018 4.96962e-017 
2.16777 84.3085 -13.278 -1.07427 4.43846 -1.62055 -6.90913 23.3729 3.77788 -5.50532 -28.5153 -3.28385 16.1778 10.1189 -5.08465 -78.799 6.86078 -14.56 13.7791 -2.83851 -23.1236 -0.254727 0.53905 -1.01042 82.9242 22.4309 16.349 -15.0956 -3.56682 21.3047 0.783119 16.666 0.47538 5.46516 -24.6716 4.44558 0.850042 45.8407 -1.99722 0.0977677 -25.1696 5.11255 3.47873e-016 0 -0 3.70122 -21.4688 14.9148 -1.73408 42.9164 2.34954 1.15479 -25.5038 -13.0829 -3.90823e-016 -1.55301e-018 4.96962e-017 
2.16512 83.6661 -13.3621 -0.0107989 3.90127 -2.19608 -8.96631 24.7404 4.5693 -4.41479 -28.9827 -2.92911 15.7605 9.54441 -4.82198 -77.9019 7.29714 -14.5523 14.3671 -3.14785 -24.2879 -0.201129 0.0831771 -1.0259 82.5691 22.6574 17.4631 -14.8269 -3.41001 20.7928 0.841556 16.9153 0.386292 4.58473 -24.947 5.10123 1.07062 47.5511 -2.22454 -0.0575152 -26.1073 4.49273 -3.04389e-016 4.96962e-017 7.95139e-016 2.80149 -22.8982 14.5114 -1.9593 46.3377 2.51285 1.2585 -26.9944 -11.9198 -3.45604e-016 -1.55301e-018 4.96962e-017 
2.19456 82.8394 -13.5111 0.952355 3.6167 -2.97886 -10.8915 25.9093 5.54082 -3.48528 -29.3224 -2.51436 15.2697 8.34603 -4.41077 -77.0002 8.02387 -14.7577 14.6921 -3.3266 -24.9466 -0.248204 -1.15934 -1.01346 82.3638 22.1381 18.7895 -14.5732 -3.24097 20.2448 0.848023 17.4452 0.367951 4.06158 -25.9744 6.2086 1.30346 49.912 -2.5223 -0.420798 -27.1837 3.98286 -2.20527e-016 4.96962e-017 1.59028e-015 2.27359 -25.0011 14.8105 -2.2118 50.1641 2.7775 1.60069 -28.5018 -10.8339 -4.55807e-016 0 9.93923e-017 
2.30843 82.0098 -13.568 1.15295 3.22424 -3.57223 -11.2776 27.163 6.16668 -3.66858 -29.7172 -2.42236 15.1195 7.59658 -4.13619 -76.8235 8.42135 -14.8384 14.9404 -3.48022 -25.4984 -0.240674 -1.30246 -1.00272 81.8502 21.4563 19.7133 -14.5232 -3.20107 20.1494 0.856588 17.5825 0.341007 4.28601 -26.9629 7.10215 1.52216 52.5561 -2.8523 -0.942634 -28.454 3.51712 -1.38217e-016 2.48481e-017 -0 2.31209 -26.4997 14.6638 -2.46462 53.3845 2.92955 1.46831 -29.8076 -10.0485 -1.62265e-016 0 -9.93923e-017 
2.46278 81.1498 -13.6345 1.2402 2.94629 -3.85302 -11.2478 28.5031 6.27497 -3.74624 -30.2579 -2.43336 14.4931 6.53028 -3.80033 -76.6675 8.78909 -15.0948 15.0903 -3.57647 -25.8503 -0.252269 -2.03784 -1.00735 81.0672 21.1323 20.7074 -14.6633 -3.2796 20.4341 0.816524 17.3236 0.401473 4.69599 -28.1578 7.99561 1.76206 55.3511 -3.07664 -1.20202 -29.7524 2.37502 -3.09048e-016 0 -7.95139e-016 2.26932 -27.8029 14.2115 -2.7556 56.1737 3.08248 1.37895 -31.0073 -9.46785 -5.20651e-017 -2.32951e-018 -0 
